<svg xmlns="http://www.w3.org/2000/svg" width="26.327" height="26.327" viewBox="0 0 26.327 26.327">
  <path id="Контур_3280" d="M13.676,6A7.688,7.688,0,0,0,6,13.681V24.65a7.688,7.688,0,0,0,7.681,7.676H24.65a7.688,7.688,0,0,0,7.676-7.681V13.676A7.688,7.688,0,0,0,24.646,6Zm13.165,4.388a1.1,1.1,0,1,1-1.1,1.1A1.1,1.1,0,0,1,26.842,10.388Zm-7.679,2.194a6.582,6.582,0,1,1-6.582,6.582A6.589,6.589,0,0,1,19.163,12.582Zm0,2.194a4.388,4.388,0,1,0,4.388,4.388A4.388,4.388,0,0,0,19.163,14.776Zm0,0" transform="translate(-6 -6)"/>
</svg>
