<svg xmlns="http://www.w3.org/2000/svg" width="56" height="56" viewBox="0 0 56 56">
  <path id="Контур_2214" d="M30,2A28,28,0,1,0,58,30,28.01,28.01,0,0,0,30,2ZM27.2,52.2A22.368,22.368,0,0,1,7.6,30a22.73,22.73,0,0,1,.588-5.012L21.6,38.4v2.8a5.616,5.616,0,0,0,5.6,5.6Zm19.32-7.112A5.555,5.555,0,0,0,41.2,41.2H38.4V32.8A2.808,2.808,0,0,0,35.6,30H18.8V24.4h5.6a2.808,2.808,0,0,0,2.8-2.8V16h5.6a5.616,5.616,0,0,0,5.6-5.6V9.252a22.35,22.35,0,0,1,8.12,35.84Z" transform="translate(-2 -2)" fill="#ffeb00"/>
</svg>
