<svg xmlns="http://www.w3.org/2000/svg" width="21" height="21" viewBox="0 0 21 21">
  <path id="Контур_3276" d="M7.13,5.333a14.364,14.364,0,0,0,.525,3.022l-1.4,1.4a17.3,17.3,0,0,1-.887-4.422H7.13m11.5,14.023a14.878,14.878,0,0,0,3.033.525V21.62a18,18,0,0,1-4.433-.875l1.4-1.388M8.25,3H4.167A1.17,1.17,0,0,0,3,4.167,19.832,19.832,0,0,0,22.833,24,1.17,1.17,0,0,0,24,22.833V18.762a1.17,1.17,0,0,0-1.167-1.167,13.308,13.308,0,0,1-4.165-.665.979.979,0,0,0-.362-.058,1.2,1.2,0,0,0-.828.338l-2.567,2.567a17.673,17.673,0,0,1-7.688-7.688L9.79,9.522a1.171,1.171,0,0,0,.292-1.19,13.254,13.254,0,0,1-.665-4.165A1.17,1.17,0,0,0,8.25,3Z" transform="translate(-3 -3)" fill="#ffeb00"/>
</svg>
