<svg id="Сгруппировать_316" xmlns="http://www.w3.org/2000/svg" width="20.751" height="22.667" viewBox="0 0 20.751 22.667">
  <path id="Контур_3250" d="M7.663,18a2.667,2.667,0,1,0,2.667,2.667A2.663,2.663,0,0,0,7.663,18Z" transform="translate(-1.147 -0.667)" fill="#ffeb00"/>
  <path id="Контур_3251" d="M17.663,18a2.667,2.667,0,1,0,2.667,2.667A2.663,2.663,0,0,0,17.663,18Z" transform="translate(-2.256 -0.667)" fill="#ffeb00"/>
  <path id="Контур_3252" d="M16.091,13.733a2.056,2.056,0,0,0,1.815-1.1l3.713-6.923a1.063,1.063,0,0,0-.9-1.579H5.366L4.391,2H1V4.133H3.074l3.734,8.1-1.4,2.6A2.137,2.137,0,0,0,7.223,18H19.669V15.867H7.223l1.141-2.133ZM6.352,6.267h12.6L16.091,11.6H8.81Z" transform="translate(-1 -2)" fill="#ffeb00"/>
</svg>
