<?xml version="1.0" encoding="UTF-8"?><!DOCTYPE svg PUBLIC "-//W3C//DTD SVG 1.1//EN" "http://www.w3.org/Graphics/SVG/1.1/DTD/svg11.dtd"><svg xmlns="http://www.w3.org/2000/svg" xmlns:xlink="http://www.w3.org/1999/xlink"><symbol id="icon-cart" viewBox="0 0 20.751 22.667">
  <path id="&#x41A;&#x43E;&#x43D;&#x442;&#x443;&#x440;_3250" d="M7.663,18a2.667,2.667,0,1,0,2.667,2.667A2.663,2.663,0,0,0,7.663,18Z" transform="translate(-1.147 -0.667)" fill="#ffeb00"/>
  <path id="&#x41A;&#x43E;&#x43D;&#x442;&#x443;&#x440;_3251" d="M17.663,18a2.667,2.667,0,1,0,2.667,2.667A2.663,2.663,0,0,0,17.663,18Z" transform="translate(-2.256 -0.667)" fill="#ffeb00"/>
  <path id="&#x41A;&#x43E;&#x43D;&#x442;&#x443;&#x440;_3252" d="M16.091,13.733a2.056,2.056,0,0,0,1.815-1.1l3.713-6.923a1.063,1.063,0,0,0-.9-1.579H5.366L4.391,2H1V4.133H3.074l3.734,8.1-1.4,2.6A2.137,2.137,0,0,0,7.223,18H19.669V15.867H7.223l1.141-2.133ZM6.352,6.267h12.6L16.091,11.6H8.81Z" transform="translate(-1 -2)" fill="#ffeb00"/>
</symbol><symbol id="icon-check" viewBox="0 0 24.166 21.4">
  <path id="&#x41A;&#x43E;&#x43D;&#x442;&#x443;&#x440;_233" d="M11.089,22.528,5.322,15.821,3.4,18.057,11.089,27,27.566,7.836,25.644,5.6Z" transform="translate(-3.4 -5.6)"/>
</symbol><symbol id="icon-close" viewBox="0 0 29.414 29.414">
  <g id="&#x421;&#x433;&#x440;&#x443;&#x43F;&#x43F;&#x438;&#x440;&#x43E;&#x432;&#x430;&#x442;&#x44C;_323" transform="translate(-1292.793 -282.793)">
    <line id="&#x41B;&#x438;&#x43D;&#x438;&#x44F;_45" x2="28" y2="28" transform="translate(1293.5 283.5)" fill="none" stroke="#2c2c2c" stroke-width="2"/>
    <line id="&#x41B;&#x438;&#x43D;&#x438;&#x44F;_46" x1="28" y2="28" transform="translate(1293.5 283.5)" fill="none" stroke="#2c2c2c" stroke-width="2"/>
  </g>
</symbol><symbol id="icon-contacts-map" viewBox="0 0 34.318 31.295">
  <path id="&#x41A;&#x43E;&#x43D;&#x442;&#x443;&#x440;_1910" d="M36.365,3l-.305.052-10.181,3.6L14.439,3,3.686,6.3A.892.892,0,0,0,3,7.138V33.426a.905.905,0,0,0,.953.869l.305-.052,10.181-3.6L25.879,34.3l10.753-3.3a.892.892,0,0,0,.686-.835V3.869A.905.905,0,0,0,36.365,3ZM25.879,30.818,14.439,27.149V6.477l11.439,3.668Z" transform="translate(-3 -3)" fill="#ffeb00"/>
</symbol><symbol id="icon-contacts-phone" viewBox="0 0 54 54">
  <path id="&#x41A;&#x43E;&#x43D;&#x442;&#x443;&#x440;_868" d="M13.86,26.37A45.446,45.446,0,0,0,33.63,46.14l6.6-6.6a2.983,2.983,0,0,1,3.06-.72A34.221,34.221,0,0,0,54,40.53a3.009,3.009,0,0,1,3,3V54a3.009,3.009,0,0,1-3,3A51,51,0,0,1,3,6,3.009,3.009,0,0,1,6,3H16.5a3.009,3.009,0,0,1,3,3,34.081,34.081,0,0,0,1.71,10.71,3.011,3.011,0,0,1-.75,3.06Z" transform="translate(-3 -3)" fill="#ffeb00"/>
</symbol><symbol id="icon-contacts-pin" viewBox="0 0 35.522 50.209">
  <path id="&#x41A;&#x43E;&#x43D;&#x442;&#x443;&#x440;_1930" d="M22.761,2A17.655,17.655,0,0,0,5,19.573c0,13.18,17.761,32.636,17.761,32.636S40.522,32.753,40.522,19.573A17.655,17.655,0,0,0,22.761,2Zm0,23.849A6.276,6.276,0,1,1,29.1,19.573,6.312,6.312,0,0,1,22.761,25.849Z" transform="translate(-5 -2)" fill="#ffeb00"/>
</symbol><symbol id="icon-contacts-planet" viewBox="0 0 56 56">
  <path id="&#x41A;&#x43E;&#x43D;&#x442;&#x443;&#x440;_2214" d="M30,2A28,28,0,1,0,58,30,28.01,28.01,0,0,0,30,2ZM27.2,52.2A22.368,22.368,0,0,1,7.6,30a22.73,22.73,0,0,1,.588-5.012L21.6,38.4v2.8a5.616,5.616,0,0,0,5.6,5.6Zm19.32-7.112A5.555,5.555,0,0,0,41.2,41.2H38.4V32.8A2.808,2.808,0,0,0,35.6,30H18.8V24.4h5.6a2.808,2.808,0,0,0,2.8-2.8V16h5.6a5.616,5.616,0,0,0,5.6-5.6V9.252a22.35,22.35,0,0,1,8.12,35.84Z" transform="translate(-2 -2)" fill="#ffeb00"/>
</symbol><symbol id="icon-fb" viewBox="0 0 26.327 26.327">
  <path id="&#x41A;&#x43E;&#x43D;&#x442;&#x443;&#x440;_3279" d="M23.914,0H2.412A2.434,2.434,0,0,0,0,2.412v21.5a2.434,2.434,0,0,0,2.412,2.412H13.163V15.357H9.872V12.066h3.291V8.776c0-2.742,1.1-4.388,4.388-4.388h3.291V7.679H19.415a1.923,1.923,0,0,0-1.864,1.864v2.524h4.388l-.548,3.291H17.551V26.327h6.363a2.434,2.434,0,0,0,2.412-2.412V2.412A2.434,2.434,0,0,0,23.914,0Zm0,0"/>
</symbol><symbol id="icon-inst" viewBox="0 0 26.327 26.327">
  <path id="&#x41A;&#x43E;&#x43D;&#x442;&#x443;&#x440;_3280" d="M13.676,6A7.688,7.688,0,0,0,6,13.681V24.65a7.688,7.688,0,0,0,7.681,7.676H24.65a7.688,7.688,0,0,0,7.676-7.681V13.676A7.688,7.688,0,0,0,24.646,6Zm13.165,4.388a1.1,1.1,0,1,1-1.1,1.1A1.1,1.1,0,0,1,26.842,10.388Zm-7.679,2.194a6.582,6.582,0,1,1-6.582,6.582A6.589,6.589,0,0,1,19.163,12.582Zm0,2.194a4.388,4.388,0,1,0,4.388,4.388A4.388,4.388,0,0,0,19.163,14.776Zm0,0" transform="translate(-6 -6)"/>
</symbol><symbol id="icon-load" viewBox="0 0 25.302 31.627">
  <path id="&#x41A;&#x43E;&#x43D;&#x442;&#x443;&#x440;_728" d="M16.651,7.325V1L8.744,8.907l7.907,7.907V10.488a9.488,9.488,0,1,1-9.488,9.488H4A12.651,12.651,0,1,0,16.651,7.325Z" transform="translate(-4 -1)"/>
</symbol><symbol id="icon-phone" viewBox="0 0 21 21">
  <path id="&#x41A;&#x43E;&#x43D;&#x442;&#x443;&#x440;_3276" d="M7.13,5.333a14.364,14.364,0,0,0,.525,3.022l-1.4,1.4a17.3,17.3,0,0,1-.887-4.422H7.13m11.5,14.023a14.878,14.878,0,0,0,3.033.525V21.62a18,18,0,0,1-4.433-.875l1.4-1.388M8.25,3H4.167A1.17,1.17,0,0,0,3,4.167,19.832,19.832,0,0,0,22.833,24,1.17,1.17,0,0,0,24,22.833V18.762a1.17,1.17,0,0,0-1.167-1.167,13.308,13.308,0,0,1-4.165-.665.979.979,0,0,0-.362-.058,1.2,1.2,0,0,0-.828.338l-2.567,2.567a17.673,17.673,0,0,1-7.688-7.688L9.79,9.522a1.171,1.171,0,0,0,.292-1.19,13.254,13.254,0,0,1-.665-4.165A1.17,1.17,0,0,0,8.25,3Z" transform="translate(-3 -3)" fill="#ffeb00"/>
</symbol><symbol id="icon-quotes" viewBox="0 0 43.884 31.346">
  <path id="&#x41A;&#x43E;&#x43D;&#x442;&#x443;&#x440;_1277" d="M8.135,38.346h9.4l6.269-12.538V7H5V25.808h9.4Zm25.077,0h9.4l6.269-12.538V7H30.077V25.808h9.4Z" transform="translate(-5 -7)" fill="#ffeb00"/>
</symbol></svg>